<svg xmlns="http://www.w3.org/2000/svg" viewBox="0 0 600 1000" fill="none" stroke="currentColor" stroke-width="1.2" stroke-linecap="round" stroke-linejoin="round"><g transform="matrix(-1 0 0 1 600 0)"><g transform="translate(36 150) scale(.86)"><path vector-effect="non-scaling-stroke" class="d" stroke-opacity=".72" d="M540 120v760"/><path vector-effect="non-scaling-stroke" class="f" d="M540 140h-18M540 164h-8M540 188h-8M540 212h-8M540 236h-8M540 260h-18M540 284h-8M540 308h-8M540 332h-8M540 356h-8M540 380h-18M540 404h-8M540 428h-8M540 452h-8M540 476h-8M540 500h-18M540 524h-8M540 548h-8M540 572h-8M540 596h-8M540 620h-18M540 644h-8M540 668h-8M540 692h-8M540 716h-8M540 740h-18M540 764h-8M540 788h-8M540 812h-8M540 836h-8M540 860h-18" stroke-opacity=".6"/><path vector-effect="non-scaling-stroke" class="d" stroke-opacity=".72" d="M540 190l10 10-10 10-10-10z"/><path vector-effect="non-scaling-stroke" class="d" d="M522 200h-160" stroke-opacity=".6"/><path vector-effect="non-scaling-stroke" class="d" stroke-opacity=".72" d="M540 370l10 10-10 10-10-10z"/><path vector-effect="non-scaling-stroke" class="d" d="M522 380h-160" stroke-opacity=".6"/><path vector-effect="non-scaling-stroke" class="k" stroke-width="1.8" d="M540 550l10 10-10 10-10-10z"/><path vector-effect="non-scaling-stroke" class="d" d="M522 560h-160" stroke-opacity=".6"/><path vector-effect="non-scaling-stroke" class="k" stroke-width="1.8" d="M540 750l10 10-10 10-10-10z"/><path vector-effect="non-scaling-stroke" class="d" d="M522 760h-140" stroke-opacity=".6"/><circle class="n" cx="540" cy="120" r="3" fill="currentColor"/><circle class="n" cx="540" cy="880" r="3" fill="currentColor"/></g></g></svg>